<?xml version="1.0" encoding="utf-8"?>
<!-- Generator: Adobe Illustrator 23.0.4, SVG Export Plug-In . SVG Version: 6.00 Build 0)  -->
<svg version="1.1" id="Layer_1" xmlns="http://www.w3.org/2000/svg" xmlns:xlink="http://www.w3.org/1999/xlink" x="0px" y="0px"
	 viewBox="0 0 792 416" style="enable-background:new 0 0 792 416;" xml:space="preserve">
<style type="text/css">
	.st0{fill:#414042;}
	.st1{fill:#73BB44;}
</style>
<g>
	<path class="st0" d="M143.8,11.9h47.9v238h-82.6c-33.6,0-49.6-5-66.8-20.4c-17.4-16-26.5-38.9-26.5-67.9c0-30,9.7-52.7,30-69.5
		c12.8-10.7,30.3-16,52.7-16h45V11.9H143.8z M143.8,113.3h-34.7c-27.9,0-44.5,18.3-44.5,48.5c0,31.7,17.2,51,44.5,51h34.7V113.3z"/>
	<path class="st0" d="M380.8,181.4H280.2c1.5,22.5,14.3,32.1,42.2,31.5h58.4v37.2h-63.4c-27.5,0-42.9-4.2-58.6-16.4
		c-20.8-15.8-31.5-40.8-31.5-72.9c0-30.3,13.2-58.2,33.8-72.1c13.2-8.8,29-12.4,52.5-12.4h67.2v37.2h-63.4
		c-26.5,0-35.3,7.6-37.2,31.1h100.6V181.4z"/>
	<path class="st0" d="M562.1,181.4H461.5c1.5,22.5,14.3,32.1,42.2,31.5h58.6v37.2h-63.9c-27.5,0-42.9-4.2-58.6-16.4
		c-20.8-15.8-31.5-40.8-31.5-72.9c0-30.3,13.2-58.2,33.8-72.1c13.2-8.8,29-12.4,52.5-12.4h67v37.2h-63.2c-26.5,0-35.3,7.6-37.2,31.1
		h100.6v36.8H562.1z"/>
	<path class="st0" d="M685.2,76.1c32.6,0,46,3.2,60.7,14.9c20.4,15.8,31.1,41.4,31.1,74.6c0,25-7.8,46.4-22.9,61.8
		c-15.3,15.8-33.6,22.5-62.4,22.5h-42.2v65.3h-47.9V76.1H685.2z M649.5,212.9h29.2c32.8,0,49.2-16.8,49.2-50.6
		c0-31.5-16.4-48.9-45.6-48.9h-32.8L649.5,212.9L649.5,212.9z"/>
</g>
<g>
	<path class="st1" d="M383.3,329.9c0,29.8-17.6,47.3-47.7,47.3c-30.9,0-47.9-16.6-47.9-46.2c0-14.3,4.4-27.3,12.2-35.7
		c8.2-9.2,20-13.7,36.8-13.7C366.7,281.6,383.3,298.8,383.3,329.9z M307.1,329.9c0,21,9.7,31.9,28.1,31.9c19.3,0,29-10.5,29-31.5
		c0-21.4-10.3-33.4-28.8-33.4C317.1,296.9,307.1,308.7,307.1,329.9z"/>
	<path class="st1" d="M442.1,282.4c19.5,0,26.7,2.3,35.1,11.3c7.4,8,11.1,20,11.1,35.5c0,15.8-5.5,30.7-14.1,38.7
		c-7.6,6.7-14.1,8.2-34.2,8.2h-17.9v29.8h-18.7V282.4H442.1z M422.2,361.4H440c10.7,0,17.9-2.1,21.8-6.1c4.6-4.8,7.1-14.7,7.1-27.1
		c0-21.8-8.2-30.9-29-30.9h-17.9V361.4z"/>
	<path class="st1" d="M584.6,297.3h-42.2c-12.8,0-14.9,0.4-17.2,2.5c-2.1,2.3-3.4,5.9-3.4,10.5c0,9.5,3.2,11.3,18.5,11.3h12.6
		c20.8,0.2,21.8,0.4,26,2.9c5.9,3.6,9.5,12.4,9.5,23.5c0,12.4-4.4,21.6-12.2,25.4c-4.4,2.3-8.4,2.7-23.3,2.7h-49.6v-14.9h45.6
		c9.5,0,13.9-0.4,16-1.3c3.2-1.1,4.6-4.6,4.6-10.3c0-6.1-1.7-9.5-5.9-10.5c-1.9-0.4-4.8-0.6-13.7-0.6h-7.6c-20,0-24.4-0.8-29.8-5
		c-6.1-5-9.9-13.9-9.9-23.3c0-10.7,4.6-19.7,12.4-23.9c5-2.7,11.6-3.8,22.3-3.8h47.3V297.3z"/>
</g>
</svg>
