<?xml version="1.0" encoding="utf-8"?>
<!-- Generator: Adobe Illustrator 23.0.4, SVG Export Plug-In . SVG Version: 6.00 Build 0)  -->
<svg version="1.1" id="Layer_1" xmlns="http://www.w3.org/2000/svg" xmlns:xlink="http://www.w3.org/1999/xlink" x="0px" y="0px"
	 viewBox="0 0 792 612" style="enable-background:new 0 0 792 612;" xml:space="preserve">
<style type="text/css">
	.st0{fill:#FFFFFF;}
	.st1{fill:#73BB44;}
</style>
<g>
	<path class="st0" d="M276.2,213.1h22.8v113.3h-39.3c-16,0-23.6-2.4-31.8-9.7c-8.3-7.6-12.6-18.5-12.6-32.3
		c0-14.3,4.6-25.1,14.3-33.1c6.1-5.1,14.4-7.6,25.1-7.6h21.4V213.1z M276.2,261.4h-16.5c-13.3,0-21.2,8.7-21.2,23.1
		c0,15.1,8.2,24.3,21.2,24.3h16.5V261.4z"/>
	<path class="st0" d="M389,293.8h-47.9c0.7,10.7,6.8,15.3,20.1,15H389v17.7h-30.2c-13.1,0-20.4-2-27.9-7.8c-9.9-7.5-15-19.4-15-34.7
		c0-14.4,6.3-27.7,16.1-34.3c6.3-4.2,13.8-5.9,25-5.9H389v17.7h-30.2c-12.6,0-16.8,3.6-17.7,14.8H389V293.8z"/>
	<path class="st0" d="M475.3,293.8h-47.9c0.7,10.7,6.8,15.3,20.1,15h27.9v17.7H445c-13.1,0-20.4-2-27.9-7.8
		c-9.9-7.5-15-19.4-15-34.7c0-14.4,6.3-27.7,16.1-34.3c6.3-4.2,13.8-5.9,25-5.9h31.9v17.7H445c-12.6,0-16.8,3.6-17.7,14.8h47.9
		V293.8z"/>
	<path class="st0" d="M533.9,243.7c15.5,0,21.9,1.5,28.9,7.1c9.7,7.5,14.8,19.7,14.8,35.5c0,11.9-3.7,22.1-10.9,29.4
		c-7.3,7.5-16,10.7-29.7,10.7h-20.1v31.1h-22.8V243.7H533.9z M516.9,308.8h13.9c15.6,0,23.4-8,23.4-24.1c0-15-7.8-23.3-21.7-23.3
		h-15.6V308.8z"/>
</g>
<g>
	<path class="st1" d="M390.2,364.5c0,14.2-8.4,22.5-22.7,22.5c-14.7,0-22.8-7.9-22.8-22c0-6.8,2.1-13,5.8-17
		c3.9-4.4,9.5-6.5,17.5-6.5C382.3,341.5,390.2,349.7,390.2,364.5z M353.9,364.5c0,10,4.6,15.2,13.4,15.2c9.2,0,13.8-5,13.8-15
		c0-10.2-4.9-15.9-13.7-15.9C358.7,348.8,353.9,354.4,353.9,364.5z"/>
	<path class="st1" d="M418.2,341.9c9.3,0,12.7,1.1,16.7,5.4c3.5,3.8,5.3,9.5,5.3,16.9c0,7.5-2.6,14.6-6.7,18.4
		c-3.6,3.2-6.7,3.9-16.3,3.9h-8.5v14.2h-8.9v-58.8H418.2z M408.7,379.5h8.5c5.1,0,8.5-1,10.4-2.9c2.2-2.3,3.4-7,3.4-12.9
		c0-10.4-3.9-14.7-13.8-14.7h-8.5V379.5z"/>
	<path class="st1" d="M486,349h-20.1c-6.1,0-7.1,0.2-8.2,1.2c-1,1.1-1.6,2.8-1.6,5c0,4.5,1.5,5.4,8.8,5.4h6
		c9.9,0.1,10.4,0.2,12.4,1.4c2.8,1.7,4.5,5.9,4.5,11.2c0,5.9-2.1,10.3-5.8,12.1c-2.1,1.1-4,1.3-11.1,1.3h-23.6v-7.1H469
		c4.5,0,6.6-0.2,7.6-0.6c1.5-0.5,2.2-2.2,2.2-4.9c0-2.9-0.8-4.5-2.8-5c-0.9-0.2-2.3-0.3-6.5-0.3h-3.6c-9.5,0-11.6-0.4-14.2-2.4
		c-2.9-2.4-4.7-6.6-4.7-11.1c0-5.1,2.2-9.4,5.9-11.4c2.4-1.3,5.5-1.8,10.6-1.8H486V349z"/>
</g>
</svg>
